<?xml version="1.0" encoding="UTF-8"?> <svg xmlns="http://www.w3.org/2000/svg" xmlns:xlink="http://www.w3.org/1999/xlink" id="Design" viewBox="0 0 540 540"><defs><style>.cls-1{fill:none;}.cls-2{fill:#d5e1eb;}.cls-3{fill:#fff;}.cls-4{fill:#eaf0f5;}.cls-5{fill:#2f6b9a;}.cls-6{fill:#fddda3;}.cls-7{fill:#dedfe0;}.cls-8{fill:#183059;}.cls-9{clip-path:url(#clip-path);}.cls-10{fill:#766499;}.cls-11{fill:#43597a;}.cls-12{fill:#fcbb47;}.cls-13{fill:#fba919;}.cls-14{fill:#bbb1cc;}.cls-15{fill:#988bb3;}.cls-16{fill:#143059;}.cls-17{fill:#72839b;}.cls-18{fill:#fccc75;}</style><clipPath id="clip-path"><polygon class="cls-1" points="229.54 441.1 530.62 441.1 537.86 188.36 229.54 188.36 229.54 441.1"></polygon></clipPath></defs><rect class="cls-2" x="280.49" y="261.16" width="259.51" height="180.09"></rect><rect class="cls-3" x="331.55" y="295.12" width="149.32" height="35.24" rx="14.48"></rect><rect class="cls-4" x="356.75" y="304.06" width="114.6" height="6.26" rx="3.13"></rect><rect class="cls-4" x="356.75" y="315.17" width="66.27" height="6.26" rx="3.13"></rect><path class="cls-4" d="M344.18,319.39a6.65,6.65,0,1,1,6.65-6.65A6.66,6.66,0,0,1,344.18,319.39Zm0-11.81a5.17,5.17,0,1,0,5.17,5.16A5.16,5.16,0,0,0,344.18,307.58Z"></path><rect class="cls-3" x="291.01" y="294.75" width="35.54" height="35.54" rx="15.91"></rect><circle class="cls-5" cx="308.78" cy="312.53" r="9.66"></circle><rect class="cls-3" x="331.55" y="337.7" width="149.32" height="35.24" rx="14.48"></rect><rect class="cls-4" x="356.75" y="346.64" width="114.6" height="6.26" rx="3.13"></rect><rect class="cls-4" x="356.75" y="357.75" width="66.27" height="6.26" rx="3.13"></rect><path class="cls-4" d="M344.18,362a6.65,6.65,0,1,1,6.65-6.65A6.66,6.66,0,0,1,344.18,362Zm0-11.81a5.17,5.17,0,1,0,5.17,5.16A5.17,5.17,0,0,0,344.18,350.16Z"></path><rect class="cls-3" x="291.01" y="337.34" width="35.54" height="35.54" rx="15.91"></rect><circle class="cls-6" cx="308.78" cy="355.11" r="9.66"></circle><rect class="cls-3" x="331.55" y="380.28" width="149.32" height="35.24" rx="14.48"></rect><rect class="cls-4" x="356.75" y="389.22" width="114.6" height="6.26" rx="3.13"></rect><rect class="cls-4" x="356.75" y="400.33" width="66.27" height="6.26" rx="3.13"></rect><path class="cls-4" d="M344.18,404.55a6.65,6.65,0,1,1,6.65-6.64A6.66,6.66,0,0,1,344.18,404.55Zm0-11.81a5.17,5.17,0,1,0,5.17,5.17A5.17,5.17,0,0,0,344.18,392.74Z"></path><rect class="cls-3" x="291.01" y="379.92" width="35.54" height="35.54" rx="15.91"></rect><circle class="cls-5" cx="308.78" cy="397.69" r="9.66"></circle><rect class="cls-5" x="280.49" y="261.16" width="259.51" height="11.72"></rect><rect class="cls-5" x="280.49" y="441.28" width="259.51" height="9.63"></rect><circle class="cls-2" cx="287.79" cy="267.02" r="2.75"></circle><circle class="cls-2" cx="295.19" cy="267.02" r="2.75"></circle><circle class="cls-2" cx="302.6" cy="267.02" r="2.75"></circle><rect class="cls-3" x="490.24" y="295.12" width="40.26" height="77.59" rx="14.48"></rect><rect class="cls-2" x="27.22" y="110.38" width="256.95" height="173.58"></rect><path class="cls-5" d="M280.7,102.9H30.38A5.39,5.39,0,0,0,25,108.29V284.7h261.1V108.29A5.39,5.39,0,0,0,280.7,102.9Zm1.89,174.55a3.68,3.68,0,0,1-3.74,3.7H32.23a3.68,3.68,0,0,1-3.74-3.7V116.08a3.74,3.74,0,0,1,3.74-3.74H278.85a3.74,3.74,0,0,1,3.74,3.74Z"></path><circle class="cls-7" cx="155.54" cy="107.57" r="2.81"></circle><path class="cls-5" d="M309.89,281.33H185.62a7.38,7.38,0,0,1-7.12,5.41H132.58a7.38,7.38,0,0,1-7.12-5.41H1.19A1.19,1.19,0,0,0,0,282.69a9.57,9.57,0,0,0,9.48,8.21h292.1a9.57,9.57,0,0,0,9.48-8.21A1.19,1.19,0,0,0,309.89,281.33Z"></path><path class="cls-8" d="M132.58,286.74H178.5a7.35,7.35,0,0,0,7.12-5.54H125.46A7.35,7.35,0,0,0,132.58,286.74Z"></path><rect class="cls-3" x="83.39" y="136.05" width="133.95" height="35.03" rx="14.39"></rect><rect class="cls-4" x="108.44" y="144.94" width="99.43" height="6.22" rx="3.11"></rect><rect class="cls-4" x="108.44" y="155.98" width="51.39" height="6.22" rx="3.11"></rect><path class="cls-4" d="M96,160.18a6.61,6.61,0,1,1,6.61-6.61A6.62,6.62,0,0,1,96,160.18Zm0-11.75a5.14,5.14,0,1,0,5.14,5.14A5.14,5.14,0,0,0,96,148.43Z"></path><rect class="cls-3" x="43.1" y="135.69" width="35.33" height="35.33" rx="15.81"></rect><circle class="cls-6" cx="60.77" cy="153.36" r="9.6"></circle><rect class="cls-3" x="83.39" y="178.38" width="133.95" height="35.03" rx="14.39"></rect><rect class="cls-4" x="108.44" y="187.27" width="99.43" height="6.22" rx="3.11"></rect><rect class="cls-4" x="108.44" y="198.31" width="51.39" height="6.22" rx="3.11"></rect><path class="cls-4" d="M96,202.5a6.61,6.61,0,1,1,6.61-6.6A6.62,6.62,0,0,1,96,202.5Zm0-11.74a5.14,5.14,0,1,0,5.14,5.14A5.14,5.14,0,0,0,96,190.76Z"></path><rect class="cls-3" x="43.1" y="178.02" width="35.33" height="35.33" rx="15.81"></rect><circle class="cls-5" cx="60.77" cy="195.68" r="9.6"></circle><rect class="cls-3" x="83.39" y="220.7" width="133.95" height="35.03" rx="14.39"></rect><rect class="cls-4" x="108.44" y="229.59" width="99.43" height="6.22" rx="3.11"></rect><rect class="cls-4" x="108.44" y="240.63" width="51.39" height="6.22" rx="3.11"></rect><path class="cls-4" d="M96,244.83a6.61,6.61,0,1,1,6.61-6.61A6.62,6.62,0,0,1,96,244.83Zm0-11.75a5.14,5.14,0,1,0,5.14,5.14A5.14,5.14,0,0,0,96,233.08Z"></path><rect class="cls-3" x="43.1" y="220.34" width="35.33" height="35.33" rx="15.81"></rect><circle class="cls-6" cx="60.77" cy="238.01" r="9.6"></circle><rect class="cls-3" x="226.66" y="136.05" width="47.21" height="77.12" rx="14.39"></rect><g class="cls-9"><path class="cls-10" d="M297.49,295.54l2.84,13.39h0L297,318.4l49.57,45.42c10-3.24,10.88-2.64,11.8-2.16a10.72,10.72,0,0,0,6.38,1.17l27.13-3.63,5.68-.76.63-7.6-1.1-2.83h0l-1.14-3,3.31-3.6L360,346.19a10.8,10.8,0,0,1-8.9-3l-6.49-5.94-35.5-32.53a6.79,6.79,0,0,1-2-3.31L304.74,292l-7.25,3.54"></path><path class="cls-11" d="M440.33,322.36c4,8.07,7.62,18.72,7.62,26.82v5.25c0,6.93-1.23,13.32-2.41,20.56A99.32,99.32,0,0,0,444,397.91c.47,8.12,3.66,16,5.31,23.27l9.73,32.1a2.39,2.39,0,0,1-2.31,3H387a1.58,1.58,0,0,1-1.59-1.58c.06-9.39.4-48.61.24-51.24l-6.13-43.6,19.33-44.27,1.36-1a24.68,24.68,0,0,0,7.27,1.32A36,36,0,0,0,429,310.65S437.26,316.11,440.33,322.36Z"></path><path class="cls-12" d="M456.7,456.28a2.61,2.61,0,0,0,.48,0,27.77,27.77,0,0,1,1.62,8.57l3.76,73.51c0,.23,0,.45.06.68v0H419.17l-11.11-40.69-16.26-42Z"></path><polygon class="cls-13" points="386.57 542.33 389.05 456.28 391.8 456.28 408.06 498.26 420.48 542.33 386.57 542.33"></polygon><path class="cls-14" d="M493.86,665.57a3.51,3.51,0,0,0-1.29-.28l-6.4,0a5.74,5.74,0,0,1-5.07-3l-1-1.76a3.8,3.8,0,0,0-3.34-2H472a2.22,2.22,0,0,0-1.66.75q-4.79-14-9.59-28-1.77-5.21-3.56-10.4c-3.23-9.46-6.48-18.94-10.81-28-8.73-18.16-21.86-34.5-26.95-53.93h41.43c.63,22,23.23,39.69,24,62.12C484.87,601.83,484.3,644.9,493.86,665.57Z"></path><path class="cls-15" d="M392.75,295.22a8.68,8.68,0,0,0-5.26-6.22l-2.78-1.17a4.5,4.5,0,0,1-2.4-5.89l8.77-20.78a3.36,3.36,0,0,1,1.4-1.6l2.1-1.24a2.18,2.18,0,0,0,.87-2.79l-.09-.19a4,4,0,0,1,.36-4l3.89-5.52a15.27,15.27,0,0,1,4.73-4.36v0l.12,0a15.06,15.06,0,0,1,2.21-1.08,28.74,28.74,0,0,1,39,27.64c0,.9-.1,1.78-.21,2.66,0,.29-.09.58-.14.87-.09.58-.17,1.15-.29,1.72-.08.34-.18.67-.26,1-.13.5-.25,1-.4,1.49s-.25.7-.37,1-.32.92-.51,1.37-.31.69-.47,1-.39.85-.61,1.27-.37.67-.56,1-.46.8-.7,1.18-.44.64-.66,1-.52.74-.79,1.1l-.74.9c-.29.34-.58.68-.88,1s-.54.57-.82.85-.63.62-.95.91l-.9.78c-.34.29-.68.56-1,.83s-.64.48-1,.71-.73.49-1.1.73l-1,.62c-.38.22-.77.43-1.16.63s-.72.37-1.09.54-.8.36-1.21.52-.75.31-1.14.45-.84.28-1.26.42-.78.24-1.18.34-.88.21-1.33.3-.8.18-1.2.25l-.38.07v0c-.63.09-1.26.19-1.9.25s-1.69.1-1,2.34c.13.42,3-.18,3.22.2l.89,1.72c2.26,6,3.38,7.11,6.48,10.71.3.36.67.81.95,1.11,2.35,2.54,0,3.21-3.46,4.37-1.51.51-18.46,7.74-25.68,7.41-5.18-.25-2.19-5.73-2-8.05Z"></path><path class="cls-16" d="M440.35,241c6.82,7.24,8.69,15.74,8,24.42a35,35,0,0,1-10.78,22.35l-1.18,1.16a32.3,32.3,0,0,1-8.16,5.78c-2.7,1.38-4.9.9-5.66,5.32-2-.52-5.78.35-5.28-2.13a37.65,37.65,0,0,1,3.61-11.25c1.88-3.87,7.63-7.91,3.13-12.71-2.58-2.76-7.67-.38-10,1.29,4.72-10.54-9.37-18.64-12.1-27.15C394,223.2,431.17,231.26,440.35,241Z"></path><circle class="cls-16" cx="445.91" cy="287.21" r="13.99"></circle><path class="cls-17" d="M385.61,353.62l29.68-5.86a16.94,16.94,0,0,1,10.64,32.06,17.23,17.23,0,0,1-5.88,1.43l-23-1.53Z"></path></g><path class="cls-12" d="M109.83,281.15,147.5,172.84a32.92,32.92,0,0,1,17.68-19.16l11.65-5.19a96.34,96.34,0,0,0,32.83,25.43h0l0,.1,6.47,31.29a25.24,25.24,0,0,1-2.44,17L194.8,281.15Z"></path><path class="cls-13" d="M209.11,174l6,29.09a23.54,23.54,0,0,1-2.28,15.82l-11.48,21.56.91,2.5,26.6-9.12Z"></path><path class="cls-15" d="M202.28,243l26.6-9.12,2.78,8.4L264,275.18l18.91.59a5.89,5.89,0,0,1,5.18,3.5l1.57,3.58a1.84,1.84,0,0,1-1.08,2.48,2,2,0,0,0-1.36,2.09l.16,1.69a1.81,1.81,0,0,1-.53,1.46l-1.46,1.48a2.06,2.06,0,0,0-.59,1.32l-.12,2.68a3.29,3.29,0,0,1-1.07,2.25L281.74,300a2.77,2.77,0,0,1-2.36.65l-1-2.93a6.52,6.52,0,0,0-7.78-9.38,6.56,6.56,0,0,0-3.19,2.38L263.64,296l-3.42.47-1.16-2.24a4,4,0,0,1-.43-2l.25-4.1a2.68,2.68,0,0,0-1.54-2.59l-41.92-19.61h0l-.72-.34a14.52,14.52,0,0,1-7.15-8.06Z"></path><path class="cls-16" d="M188.54,138.8a5.37,5.37,0,0,0-.31-.69,32.43,32.43,0,0,1-3.62-9.64,32.83,32.83,0,0,1,63.95-14.78c.07.28.13.56.19.85h0a26.91,26.91,0,0,1-.07,12.24L238,121.16a5.63,5.63,0,0,0-7.19,1.68l-6.35,8.77-4.07.81,4.07-.81-8.82,12.17L213,139.91l3.38-7.54a2.74,2.74,0,0,0-3-3.81l-4,.8a4.4,4.4,0,0,0-3.07,2.36l-2.69,5.48a4.36,4.36,0,0,1-3,2.36l-12.13,2.5S188.45,138.56,188.54,138.8Z"></path><path class="cls-14" d="M186.15,144.35a4.39,4.39,0,0,0,2.27-2.34v.05l12.13-2.5a4.36,4.36,0,0,0,3-2.36l2.69-5.48a4.4,4.4,0,0,1,3.07-2.36l4-.8a2.74,2.74,0,0,1,3,3.81L213,139.91l2.63,3.87,8.82-12.17,6.35-8.77a5.63,5.63,0,0,1,7.19-1.68l10.64,5.6a26.47,26.47,0,0,1-2.23,6.06,18.41,18.41,0,0,1-3.76,5.14,10.62,10.62,0,0,0-3.32,6.22l-1.12,6a1,1,0,0,1-1.54.67L233.83,149a1,1,0,0,0-1.46.74l-.19,2.53a1.5,1.5,0,0,1-1.88,1.33l-2.94-.81.21,2.67a1.5,1.5,0,0,1-2,1.51l-1.43-.55a.76.76,0,0,0-1,.67c-.11,2-1.31,6.26-9.47,6.16a3.92,3.92,0,0,0-3.34,1.72c-1,1.6-1.9,4.41-.61,8.95a96.34,96.34,0,0,1-32.83-25.43Z"></path><rect class="cls-16" x="186.25" y="235.77" width="160.12" height="117.96" rx="22.11" transform="translate(33.97 -27.45) rotate(6.3)"></rect><path class="cls-3" d="M301.07,304,261.22,334.9a2,2,0,0,1-1.43.39,2.1,2.1,0,0,1-1.29-.73l-30.92-39.85A25.07,25.07,0,0,1,267.2,264c.49.63.92,1.24,1.35,1.91.58-.54,1.16-1,1.78-1.51A25.07,25.07,0,0,1,301.07,304Z"></path><path class="cls-14" d="M207.86,264.09,185.8,247.87a7.15,7.15,0,0,1-3.16-6.29L185,191.1c.5-6.23-28.86-7.78-28.7-5.95l3,65.25a13.49,13.49,0,0,0,6.21,9.69l37.06,23.22Z"></path><path class="cls-14" d="M265.87,301.93,247,288.78a4.79,4.79,0,0,1-1.49-1.33c-.46-1,5.83-1.71,7.09-1.94a3.86,3.86,0,0,0,2.78-2.78L236,283a12.06,12.06,0,0,1-6.44-2.42l-21.66-16.46-5.32,19.22,16.69,10.45a15.77,15.77,0,0,1,2.17,1.63l11.11,9.89L243.4,317a1.24,1.24,0,0,0,1.68.12l.16-.13a1.23,1.23,0,0,0,.23-1.69l-5.57-7.66a.93.93,0,0,1,1.39-1.22l11,10.47a1.23,1.23,0,0,0,1.73,0l.28-.29a1.23,1.23,0,0,0,0-1.7l-10.08-10.73a.93.93,0,0,1,.13-1.4l.31-.22a.92.92,0,0,1,1.07,0l16.13,11a1.23,1.23,0,0,0,1.51-1.94l-14.8-12.79a1,1,0,0,1-.21-1.14l.08-.16a.93.93,0,0,1,1.22-.41l15,7a1.22,1.22,0,0,0,1.62-.57l0-.05A1.24,1.24,0,0,0,265.87,301.93Z"></path><path class="cls-18" d="M186.91,234.74l1.55-44.45a17.62,17.62,0,0,0-1.67-8.16,17.88,17.88,0,0,0-34.06,8.37l2,44.55Z"></path><path class="cls-15" d="M339.17,373.93A14.46,14.46,0,0,0,350.43,379l46.59.74-11.41-26.1-29.36,5.8a7.66,7.66,0,0,1-7.18-2.35l-20.56-20.79h0L308,315.55a10.23,10.23,0,0,1-2.84-5.69L302,287.75a6.55,6.55,0,0,0-2.63,3.11c-.87,3.75.13,9.88-1.2,9.22a6.49,6.49,0,0,1-1.82-1.27l-16.83-17.95a1.34,1.34,0,0,0-1.72-.18l-.06,0a1.32,1.32,0,0,0-.36,1.81l9.67,14.72a1,1,0,0,1-.26,1.35l-.15.12a1,1,0,0,1-1.25-.06L269.6,285a1.33,1.33,0,0,0-1.76,0,1.3,1.3,0,0,0-.09,1.86l14.16,15.34a1,1,0,0,1,.14,1.13l-.19.36a1,1,0,0,1-1.46.36l-12.95-9a1.32,1.32,0,0,0-1.81.28l-.27.34a1.32,1.32,0,0,0,.23,1.84l12.78,10a1,1,0,0,1,.32,1.14,1,1,0,0,1-1.41.53l-9-4.69a1.33,1.33,0,0,0-1.76.49l-.12.2a1.3,1.3,0,0,0,.38,1.75l14.14,9.69,10.55,5.6c.75.62,6,3.75,6.65,4.5C300.55,329.71,339.17,373.93,339.17,373.93Z"></path></svg> 